<svg width="50" height="50" viewBox="0 0 50 50" fill="none" xmlns="http://www.w3.org/2000/svg">
<path d="M33.9214 26.4613C33.8974 22.6893 37.0394 20.9513 37.1514 20.8833C35.3894 18.3113 32.6254 17.9433 31.6554 17.9113C29.3275 17.6733 27.0734 19.2373 25.8914 19.2373C24.6854 19.2373 22.8534 17.9353 20.8694 17.9753C18.3214 18.0153 15.9334 19.4753 14.6294 21.7953C11.9174 26.5193 13.9394 33.7673 16.5294 37.4873C17.8334 39.3173 19.3654 41.3713 21.3774 41.2953C23.3414 41.2113 24.0854 40.0593 26.4534 40.0593C28.7974 40.0593 29.4974 41.2953 31.5474 41.2473C33.6534 41.2113 34.9894 39.3893 36.2454 37.5493C37.7454 35.4633 38.3494 33.4053 38.3694 33.3213C38.3294 33.3093 33.9494 31.6593 33.9214 26.4613Z" fill="black"/>
<path d="M30.1294 14.1313C31.1754 12.8313 31.8754 11.0393 31.6914 9.2193C30.1354 9.2873 28.1954 10.2593 27.1094 11.5273C26.1494 12.6433 25.3094 14.5073 25.5134 16.2553C27.2534 16.3713 29.0454 15.4153 30.1294 14.1313Z" fill="black"/>
</svg> 