<svg width="41" height="32" viewBox="0 0 41 32" fill="none" xmlns="http://www.w3.org/2000/svg">
    <path d="M20.5 28C23.2614 28 25.5 25.7614 25.5 23H15.5C15.5 25.7614 17.7386 28 20.5 28Z" fill="#333"/>
    <path d="M35.4167 21.8333C32.9583 19.375 30.75 16.6666 30.75 11.1666C30.75 5.66664 26.0834 1.29164 20.5 1.29164C14.9167 1.29164 10.25 5.66664 10.25 11.1666C10.25 16.6666 8.04167 19.375 5.58333 21.8333C4.35417 22.9166 5.125 25 7 25H34C35.875 25 36.6458 22.9166 35.4167 21.8333ZM33.0417 22.3333H7.95833C7.04167 22.3333 6.45833 21.2083 7.04167 20.5833C9.77083 17.8541 12.9167 14.7708 12.9167 11.1666C12.9167 7.04164 16.375 3.58331 20.5 3.58331C24.625 3.58331 28.0833 7.04164 28.0833 11.1666C28.0833 14.7708 31.2292 17.8541 33.9583 20.5833C34.5417 21.2083 33.9583 22.3333 33.0417 22.3333Z" fill="#333"/>
</svg> 