<svg width="41" height="32" viewBox="0 0 41 32" fill="none" xmlns="http://www.w3.org/2000/svg">
<g id="notifications">
<path id="icon" d="M6.83337 25.3334V22.6667H10.25V13.3334C10.25 11.4889 10.9618 9.85558 12.3855 8.43335C13.8091 6.98891 15.6598 6.04446 17.9375 5.60002V4.66669C17.9375 4.11113 18.1796 3.64446 18.6636 3.26669C19.1761 2.86669 19.7882 2.66669 20.5 2.66669C21.2118 2.66669 21.8098 2.86669 22.2938 3.26669C22.8063 3.64446 23.0625 4.11113 23.0625 4.66669V5.60002C25.3403 6.04446 27.191 6.98891 28.6146 8.43335C30.0382 9.85558 30.75 11.4889 30.75 13.3334V22.6667H34.1667V25.3334H6.83337ZM20.5 29.3334C19.5605 29.3334 18.749 29.0778 18.0657 28.5667C17.4108 28.0334 17.0834 27.4 17.0834 26.6667H23.9167C23.9167 27.4 23.575 28.0334 22.8917 28.5667C22.2368 29.0778 21.4396 29.3334 20.5 29.3334ZM13.6667 22.6667H27.3334V13.3334C27.3334 11.8667 26.6643 10.6111 25.3261 9.56669C23.9879 8.52224 22.3792 8.00002 20.5 8.00002C18.6209 8.00002 17.0122 8.52224 15.674 9.56669C14.3358 10.6111 13.6667 11.8667 13.6667 13.3334V22.6667Z" fill="#1D1B20"/>
</g>
</svg>
