<svg width="29" height="29" viewBox="0 0 29 29" fill="none" xmlns="http://www.w3.org/2000/svg">
    <path d="M28.4375 12.6875H25.2127C24.9336 11.8389 24.5605 11.0342 24.0996 10.2891L26.2617 8.12695C26.9092 7.4795 26.9092 6.41992 26.2617 5.77734L23.2227 2.7334C22.5801 2.08594 21.5205 2.08594 20.873 2.7334L18.7109 4.89062C17.9658 4.43457 17.1611 4.05664 16.3125 3.77734V0.5625C16.3125 0.251953 16.0605 0 15.75 0H11.75C11.4395 0 11.1875 0.251953 11.1875 0.5625V3.78711C10.3389 4.06641 9.53418 4.43945 8.78906 4.9004L6.62695 2.73828C5.9795 2.09082 4.91992 2.09082 4.27734 2.73828L1.2334 5.77734C0.58594 6.41992 0.58594 7.4795 1.2334 8.12695L3.39062 10.2891C2.92969 11.0342 2.55664 11.8389 2.27734 12.6875H0.5625C0.251953 12.6875 0 12.9395 0 13.25V17.25C0 17.5605 0.251953 17.8125 0.5625 17.8125H2.28711C2.56641 18.6611 2.93945 19.4658 3.4004 20.2109L1.23828 22.373C0.59082 23.0205 0.59082 24.0801 1.23828 24.7227L4.27734 27.7617C4.91992 28.4092 5.9795 28.4092 6.62695 27.7617L8.78906 25.6045C9.53418 26.0605 10.3389 26.4336 11.1875 26.7129V29.4375C11.1875 29.748 11.4395 30 11.75 30H15.75C16.0605 30 16.3125 29.748 16.3125 29.4375V26.7129C17.1611 26.4336 17.9658 26.0605 18.7109 25.6045L20.873 27.7666C21.5205 28.4141 22.5801 28.4141 23.2227 27.7666L26.2617 24.7227C26.9092 24.0801 26.9092 23.0205 26.2617 22.373L24.0996 20.2109C24.5605 19.4658 24.9336 18.6611 25.2127 17.8125H28.4375C28.748 17.8125 29 17.5605 29 17.25V13.25C29 12.9395 28.748 12.6875 28.4375 12.6875ZM14.5 19.3438C12.2285 19.3438 10.3613 17.4766 10.3613 15.2051C10.3613 12.9336 12.2285 11.0664 14.5 11.0664C16.7715 11.0664 18.6387 12.9336 18.6387 15.2051C18.6387 17.4766 16.7715 19.3438 14.5 19.3438Z" fill="#333333"/>
</svg> 